<svg xmlns="http://www.w3.org/2000/svg" width="800" height="800" viewBox="0 0 800 800"><rect width="800" height="800" fill="#fff"/><g stroke="#000" stroke-width="1.5" fill="#000"><circle cx="401.27" cy="302.93" r="3"/><circle cx="401.27" cy="302.93" r="3"/><circle cx="401.27" cy="285.27" r="3"/><circle cx="401.27" cy="285.27" r="3"/><circle cx="416.39" cy="300.26" r="3"/><circle cx="426.52" cy="337.06" r="3"/><circle cx="415.49" cy="382.26" r="3"/><circle cx="420.92" cy="400.03" r="3"/><circle cx="386.15" cy="305.59" r="3"/><circle cx="370.42" cy="336.59" r="3"/><circle cx="388.03" cy="359.35" r="3"/><circle cx="385.00" cy="384.96" r="3"/><circle cx="404.71" cy="260.69" r="3"/><circle cx="411.48" cy="238.63" r="3"/><circle cx="412.91" cy="233.38" r="3"/><circle cx="417.82" cy="238.48" r="3"/><circle cx="440.21" cy="239.63" r="3"/><circle cx="451.24" cy="262.30" r="3"/><circle cx="460.39" cy="295.39" r="3"/><circle cx="453.61" cy="301.50" r="3"/><circle cx="446.61" cy="308.30" r="3"/><circle cx="455.64" cy="314.90" r="3"/><circle cx="447.00" cy="314.86" r="3"/><circle cx="459.31" cy="316.29" r="3"/><circle cx="450.89" cy="313.94" r="3"/><circle cx="405.15" cy="238.79" r="3"/><circle cx="379.92" cy="243.78" r="3"/><circle cx="363.09" cy="270.26" r="3"/><circle cx="349.10" cy="301.66" r="3"/><circle cx="351.17" cy="311.62" r="3"/><circle cx="356.13" cy="320.04" r="3"/><circle cx="343.82" cy="322.32" r="3"/><circle cx="352.14" cy="325.50" r="3"/><circle cx="341.14" cy="320.59" r="3"/><circle cx="350.29" cy="321.57" r="3"/><line x1="401.27" y1="302.93" x2="401.27" y2="302.93" stroke="#000"/><line x1="401.27" y1="302.93" x2="401.27" y2="285.27" stroke="#000"/><line x1="401.27" y1="285.27" x2="401.27" y2="285.27" stroke="#000"/><line x1="401.27" y1="285.27" x2="416.39" y2="300.26" stroke="#000"/><line x1="416.39" y1="300.26" x2="426.52" y2="337.06" stroke="#000"/><line x1="426.52" y1="337.06" x2="415.49" y2="382.26" stroke="#000"/><line x1="415.49" y1="382.26" x2="420.92" y2="400.03" stroke="#000"/><line x1="401.27" y1="285.27" x2="386.15" y2="305.59" stroke="#000"/><line x1="386.15" y1="305.59" x2="370.42" y2="336.59" stroke="#000"/><line x1="370.42" y1="336.59" x2="388.03" y2="359.35" stroke="#000"/><line x1="388.03" y1="359.35" x2="385.00" y2="384.96" stroke="#000"/><line x1="401.27" y1="285.27" x2="404.71" y2="260.69" stroke="#000"/><line x1="404.71" y1="260.69" x2="411.48" y2="238.63" stroke="#000"/><line x1="411.48" y1="238.63" x2="412.91" y2="233.38" stroke="#000"/><line x1="411.48" y1="238.63" x2="417.82" y2="238.48" stroke="#000"/><line x1="417.82" y1="238.48" x2="440.21" y2="239.63" stroke="#000"/><line x1="440.21" y1="239.63" x2="451.24" y2="262.30" stroke="#000"/><line x1="451.24" y1="262.30" x2="460.39" y2="295.39" stroke="#000"/><line x1="460.39" y1="295.39" x2="453.61" y2="301.50" stroke="#000"/><line x1="453.61" y1="301.50" x2="446.61" y2="308.30" stroke="#000"/><line x1="460.39" y1="295.39" x2="455.64" y2="314.90" stroke="#000"/><line x1="455.64" y1="314.90" x2="447.00" y2="314.86" stroke="#000"/><line x1="460.39" y1="295.39" x2="459.31" y2="316.29" stroke="#000"/><line x1="459.31" y1="316.29" x2="450.89" y2="313.94" stroke="#000"/><line x1="411.48" y1="238.63" x2="405.15" y2="238.79" stroke="#000"/><line x1="405.15" y1="238.79" x2="379.92" y2="243.78" stroke="#000"/><line x1="379.92" y1="243.78" x2="363.09" y2="270.26" stroke="#000"/><line x1="363.09" y1="270.26" x2="349.10" y2="301.66" stroke="#000"/><line x1="349.10" y1="301.66" x2="351.17" y2="311.62" stroke="#000"/><line x1="351.17" y1="311.62" x2="356.13" y2="320.04" stroke="#000"/><line x1="349.10" y1="301.66" x2="343.82" y2="322.32" stroke="#000"/><line x1="343.82" y1="322.32" x2="352.14" y2="325.50" stroke="#000"/><line x1="349.10" y1="301.66" x2="341.14" y2="320.59" stroke="#000"/><line x1="341.14" y1="320.59" x2="350.29" y2="321.57" stroke="#000"/></g></svg>